<?xml version="1.0" encoding="UTF-8"?>
<mxfile host="app.diagrams.net" modified="2024-08-10T06:00:00.000Z" agent="5.0" etag="abc123" version="22.1.16" type="device">
  <diagram name="ERD Diagram" id="erd-diagram">
    <mxGraphModel dx="1422" dy="794" grid="1" gridSize="10" guides="1" tooltips="1" connect="1" arrows="1" fold="1" page="1" pageScale="1" pageWidth="1400" pageHeight="1000" math="0" shadow="0">
      <root>
        <mxCell id="0" />
        <mxCell id="1" parent="0" />
        
        <!-- Title -->
        <mxCell id="title" value="ENTITY RELATIONSHIP DIAGRAM (ERD) SISTEM FASHION PARK" style="text;html=1;strokeColor=none;fillColor=none;align=center;verticalAlign=middle;whiteSpace=wrap;rounded=0;fontSize=24;fontStyle=1;" vertex="1" parent="1">
          <mxGeometry x="300" y="20" width="800" height="40" as="geometry" />
        </mxCell>
        
        <!-- Users Entity -->
        <mxCell id="users" value="Users" style="rounded=1;whiteSpace=wrap;html=1;fillColor=#d5e8d4;strokeColor=#82b366;fontSize=16;fontStyle=1;" vertex="1" parent="1">
          <mxGeometry x="100" y="100" width="120" height="220" as="geometry" />
        </mxCell>
        
        <mxCell id="users_id" value="id (PK)" style="text;html=1;strokeColor=none;fillColor=none;align=left;verticalAlign=middle;whiteSpace=wrap;rounded=0;fontSize=12;fontStyle=1;" vertex="1" parent="1">
          <mxGeometry x="110" y="120" width="100" height="20" as="geometry" />
        </mxCell>
        
        <mxCell id="users_name" value="name" style="text;html=1;strokeColor=none;fillColor=none;align=left;verticalAlign=middle;whiteSpace=wrap;rounded=0;fontSize=12;" vertex="1" parent="1">
          <mxGeometry x="110" y="140" width="100" height="20" as="geometry" />
        </mxCell>
        
        <mxCell id="users_email" value="email" style="text;html=1;strokeColor=none;fillColor=none;align=left;verticalAlign=middle;whiteSpace=wrap;rounded=0;fontSize=12;" vertex="1" parent="1">
          <mxGeometry x="110" y="160" width="100" height="20" as="geometry" />
        </mxCell>
        
        <mxCell id="users_password" value="password" style="text;html=1;strokeColor=none;fillColor=none;align=left;verticalAlign=middle;whiteSpace=wrap;rounded=0;fontSize=12;" vertex="1" parent="1">
          <mxGeometry x="110" y="180" width="100" height="20" as="geometry" />
        </mxCell>
        
        <mxCell id="users_role" value="role" style="text;html=1;strokeColor=none;fillColor=none;align=left;verticalAlign=middle;whiteSpace=wrap;rounded=0;fontSize=12;" vertex="1" parent="1">
          <mxGeometry x="110" y="200" width="100" height="20" as="geometry" />
        </mxCell>
        
        <mxCell id="users_status" value="status" style="text;html=1;strokeColor=none;fillColor=none;align=left;verticalAlign=middle;whiteSpace=wrap;rounded=0;fontSize=12;" vertex="1" parent="1">
          <mxGeometry x="110" y="220" width="100" height="20" as="geometry" />
        </mxCell>
        
        <mxCell id="users_created" value="created_at" style="text;html=1;strokeColor=none;fillColor=none;align=left;verticalAlign=middle;whiteSpace=wrap;rounded=0;fontSize=12;" vertex="1" parent="1">
          <mxGeometry x="110" y="240" width="100" height="20" as="geometry" />
        </mxCell>
        
        <mxCell id="users_verified" value="email_verified" style="text;html=1;strokeColor=none;fillColor=none;align=left;verticalAlign=middle;whiteSpace=wrap;rounded=0;fontSize=12;" vertex="1" parent="1">
          <mxGeometry x="110" y="260" width="100" height="20" as="geometry" />
        </mxCell>
        
        <mxCell id="users_phone" value="phone" style="text;html=1;strokeColor=none;fillColor=none;align=left;verticalAlign=middle;whiteSpace=wrap;rounded=0;fontSize=12;" vertex="1" parent="1">
          <mxGeometry x="110" y="280" width="100" height="20" as="geometry" />
        </mxCell>
        
        <!-- Categories Entity -->
        <mxCell id="categories" value="Categories" style="rounded=1;whiteSpace=wrap;html=1;fillColor=#dae8fc;strokeColor=#6c8ebf;fontSize=16;fontStyle=1;" vertex="1" parent="1">
          <mxGeometry x="400" y="100" width="120" height="120" as="geometry" />
        </mxCell>
        
        <mxCell id="categories_id" value="id (PK)" style="text;html=1;strokeColor=none;fillColor=none;align=left;verticalAlign=middle;whiteSpace=wrap;rounded=0;fontSize=12;fontStyle=1;" vertex="1" parent="1">
          <mxGeometry x="410" y="120" width="100" height="20" as="geometry" />
        </mxCell>
        
        <mxCell id="categories_name" value="name" style="text;html=1;strokeColor=none;fillColor=none;align=left;verticalAlign=middle;whiteSpace=wrap;rounded=0;fontSize=12;" vertex="1" parent="1">
          <mxGeometry x="410" y="140" width="100" height="20" as="geometry" />
        </mxCell>
        
        <mxCell id="categories_desc" value="description" style="text;html=1;strokeColor=none;fillColor=none;align=left;verticalAlign=middle;whiteSpace=wrap;rounded=0;fontSize=12;" vertex="1" parent="1">
          <mxGeometry x="410" y="160" width="100" height="20" as="geometry" />
        </mxCell>
        
        <mxCell id="categories_status" value="status" style="text;html=1;strokeColor=none;fillColor=none;align=left;verticalAlign=middle;whiteSpace=wrap;rounded=0;fontSize=12;" vertex="1" parent="1">
          <mxGeometry x="410" y="180" width="100" height="20" as="geometry" />
        </mxCell>
        
        <!-- Products Entity -->
        <mxCell id="products" value="Products" style="rounded=1;whiteSpace=wrap;html=1;fillColor=#fff2cc;strokeColor=#d6b656;fontSize=16;fontStyle=1;" vertex="1" parent="1">
          <mxGeometry x="700" y="100" width="120" height="180" as="geometry" />
        </mxCell>
        
        <mxCell id="products_id" value="id (PK)" style="text;html=1;strokeColor=none;fillColor=none;align=left;verticalAlign=middle;whiteSpace=wrap;rounded=0;fontSize=12;fontStyle=1;" vertex="1" parent="1">
          <mxGeometry x="710" y="120" width="100" height="20" as="geometry" />
        </mxCell>
        
        <mxCell id="products_name" value="name" style="text;html=1;strokeColor=none;fillColor=none;align=left;verticalAlign=middle;whiteSpace=wrap;rounded=0;fontSize=12;" vertex="1" parent="1">
          <mxGeometry x="710" y="140" width="100" height="20" as="geometry" />
        </mxCell>
        
        <mxCell id="products_desc" value="description" style="text;html=1;strokeColor=none;fillColor=none;align=left;verticalAlign=middle;whiteSpace=wrap;rounded=0;fontSize=12;" vertex="1" parent="1">
          <mxGeometry x="710" y="160" width="100" height="20" as="geometry" />
        </mxCell>
        
        <mxCell id="products_price" value="base_price" style="text;html=1;strokeColor=none;fillColor=none;align=left;verticalAlign=middle;whiteSpace=wrap;rounded=0;fontSize=12;" vertex="1" parent="1">
          <mxGeometry x="710" y="180" width="100" height="20" as="geometry" />
        </mxCell>
        
        <mxCell id="products_category" value="category_id (FK)" style="text;html=1;strokeColor=none;fillColor=none;align=left;verticalAlign=middle;whiteSpace=wrap;rounded=0;fontSize=12;fontStyle=1;" vertex="1" parent="1">
          <mxGeometry x="710" y="200" width="100" height="20" as="geometry" />
        </mxCell>
        
        <mxCell id="products_weight" value="weight" style="text;html=1;strokeColor=none;fillColor=none;align=left;verticalAlign=middle;whiteSpace=wrap;rounded=0;fontSize=12;" vertex="1" parent="1">
          <mxGeometry x="710" y="220" width="100" height="20" as="geometry" />
        </mxCell>
        
        <mxCell id="products_status" value="status" style="text;html=1;strokeColor=none;fillColor=none;align=left;verticalAlign=middle;whiteSpace=wrap;rounded=0;fontSize=12;" vertex="1" parent="1">
          <mxGeometry x="710" y="240" width="100" height="20" as="geometry" />
        </mxCell>
        
        <mxCell id="products_created" value="created_at" style="text;html=1;strokeColor=none;fillColor=none;align=left;verticalAlign=middle;whiteSpace=wrap;rounded=0;fontSize=12;" vertex="1" parent="1">
          <mxGeometry x="710" y="260" width="100" height="20" as="geometry" />
        </mxCell>
        
        <!-- Product Variants Entity -->
        <mxCell id="variants" value="Product_Variants" style="rounded=1;whiteSpace=wrap;html=1;fillColor=#f8cecc;strokeColor=#b85450;fontSize=16;fontStyle=1;" vertex="1" parent="1">
          <mxGeometry x="100" y="400" width="120" height="160" as="geometry" />
        </mxCell>
        
        <mxCell id="variants_id" value="id (PK)" style="text;html=1;strokeColor=none;fillColor=none;align=left;verticalAlign=middle;whiteSpace=wrap;rounded=0;fontSize=12;fontStyle=1;" vertex="1" parent="1">
          <mxGeometry x="110" y="420" width="100" height="20" as="geometry" />
        </mxCell>
        
        <mxCell id="variants_product" value="product_id (FK)" style="text;html=1;strokeColor=none;fillColor=none;align=left;verticalAlign=middle;whiteSpace=wrap;rounded=0;fontSize=12;fontStyle=1;" vertex="1" parent="1">
          <mxGeometry x="110" y="440" width="100" height="20" as="geometry" />
        </mxCell>
        
        <mxCell id="variants_size" value="size" style="text;html=1;strokeColor=none;fillColor=none;align=left;verticalAlign=middle;whiteSpace=wrap;rounded=0;fontSize=12;" vertex="1" parent="1">
          <mxGeometry x="110" y="460" width="100" height="20" as="geometry" />
        </mxCell>
        
        <mxCell id="variants_color" value="color" style="text;html=1;strokeColor=none;fillColor=none;align=left;verticalAlign=middle;whiteSpace=wrap;rounded=0;fontSize=12;" vertex="1" parent="1">
          <mxGeometry x="110" y="480" width="100" height="20" as="geometry" />
        </mxCell>
        
        <mxCell id="variants_stock" value="stock" style="text;html=1;strokeColor=none;fillColor=none;align=left;verticalAlign=middle;whiteSpace=wrap;rounded=0;fontSize=12;" vertex="1" parent="1">
          <mxGeometry x="110" y="500" width="100" height="20" as="geometry" />
        </mxCell>
        
        <mxCell id="variants_price" value="price" style="text;html=1;strokeColor=none;fillColor=none;align=left;verticalAlign=middle;whiteSpace=wrap;rounded=0;fontSize=12;" vertex="1" parent="1">
          <mxGeometry x="110" y="520" width="100" height="20" as="geometry" />
        </mxCell>
        
        <mxCell id="variants_barcode" value="barcode" style="text;html=1;strokeColor=none;fillColor=none;align=left;verticalAlign=middle;whiteSpace=wrap;rounded=0;fontSize=12;" vertex="1" parent="1">
          <mxGeometry x="110" y="540" width="100" height="20" as="geometry" />
        </mxCell>
        
        <!-- Product Images Entity -->
        <mxCell id="images" value="Product_Images" style="rounded=1;whiteSpace=wrap;html=1;fillColor=#e1d5e7;strokeColor=#9673a6;fontSize=16;fontStyle=1;" vertex="1" parent="1">
          <mxGeometry x="400" y="400" width="120" height="120" as="geometry" />
        </mxCell>
        
        <mxCell id="images_id" value="id (PK)" style="text;html=1;strokeColor=none;fillColor=none;align=left;verticalAlign=middle;whiteSpace=wrap;rounded=0;fontSize=12;fontStyle=1;" vertex="1" parent="1">
          <mxGeometry x="410" y="420" width="100" height="20" as="geometry" />
        </mxCell>
        
        <mxCell id="images_product" value="product_id (FK)" style="text;html=1;strokeColor=none;fillColor=none;align=left;verticalAlign=middle;whiteSpace=wrap;rounded=0;fontSize=12;fontStyle=1;" vertex="1" parent="1">
          <mxGeometry x="410" y="440" width="100" height="20" as="geometry" />
        </mxCell>
        
        <mxCell id="images_url" value="image_url" style="text;html=1;strokeColor=none;fillColor=none;align=left;verticalAlign=middle;whiteSpace=wrap;rounded=0;fontSize=12;" vertex="1" parent="1">
          <mxGeometry x="410" y="460" width="100" height="20" as="geometry" />
        </mxCell>
        
        <mxCell id="images_primary" value="is_primary" style="text;html=1;strokeColor=none;fillColor=none;align=left;verticalAlign=middle;whiteSpace=wrap;rounded=0;fontSize=12;" vertex="1" parent="1">
          <mxGeometry x="410" y="480" width="100" height="20" as="geometry" />
        </mxCell>
        
        <!-- Transactions Entity -->
        <mxCell id="transactions" value="Transactions" style="rounded=1;whiteSpace=wrap;html=1;fillColor=#d5e8d4;strokeColor=#82b366;fontSize=16;fontStyle=1;" vertex="1" parent="1">
          <mxGeometry x="700" y="400" width="120" height="180" as="geometry" />
        </mxCell>
        
        <mxCell id="transactions_id" value="id (PK)" style="text;html=1;strokeColor=none;fillColor=none;align=left;verticalAlign=middle;whiteSpace=wrap;rounded=0;fontSize=12;fontStyle=1;" vertex="1" parent="1">
          <mxGeometry x="710" y="420" width="100" height="20" as="geometry" />
        </mxCell>
        
        <mxCell id="transactions_user" value="user_id (FK)" style="text;html=1;strokeColor=none;fillColor=none;align=left;verticalAlign=middle;whiteSpace=wrap;rounded=0;fontSize=12;fontStyle=1;" vertex="1" parent="1">
          <mxGeometry x="710" y="440" width="100" height="20" as="geometry" />
        </mxCell>
        
        <mxCell id="transactions_total" value="total_amount" style="text;html=1;strokeColor=none;fillColor=none;align=left;verticalAlign=middle;whiteSpace=wrap;rounded=0;fontSize=12;" vertex="1" parent="1">
          <mxGeometry x="710" y="460" width="100" height="20" as="geometry" />
        </mxCell>
        
        <mxCell id="transactions_payment" value="payment_method" style="text;html=1;strokeColor=none;fillColor=none;align=left;verticalAlign=middle;whiteSpace=wrap;rounded=0;fontSize=12;" vertex="1" parent="1">
          <mxGeometry x="710" y="480" width="100" height="20" as="geometry" />
        </mxCell>
        
        <mxCell id="transactions_status" value="payment_status" style="text;html=1;strokeColor=none;fillColor=none;align=left;verticalAlign=middle;whiteSpace=wrap;rounded=0;fontSize=12;" vertex="1" parent="1">
          <mxGeometry x="710" y="500" width="100" height="20" as="geometry" />
        </mxCell>
        
        <mxCell id="transactions_order" value="order_status" style="text;html=1;strokeColor=none;fillColor=none;align=left;verticalAlign=middle;whiteSpace=wrap;rounded=0;fontSize=12;" vertex="1" parent="1">
          <mxGeometry x="710" y="520" width="100" height="20" as="geometry" />
        </mxCell>
        
        <mxCell id="transactions_created" value="created_at" style="text;html=1;strokeColor=none;fillColor=none;align=left;verticalAlign=middle;whiteSpace=wrap;rounded=0;fontSize=12;" vertex="1" parent="1">
          <mxGeometry x="710" y="540" width="100" height="20" as="geometry" />
        </mxCell>
        
        <!-- Transaction Details Entity -->
        <mxCell id="transaction_details" value="Transaction_Details" style="rounded=1;whiteSpace=wrap;html=1;fillColor=#dae8fc;strokeColor=#6c8ebf;fontSize=16;fontStyle=1;" vertex="1" parent="1">
          <mxGeometry x="100" y="650" width="120" height="160" as="geometry" />
        </mxCell>
        
        <mxCell id="td_id" value="id (PK)" style="text;html=1;strokeColor=none;fillColor=none;align=left;verticalAlign=middle;whiteSpace=wrap;rounded=0;fontSize=12;fontStyle=1;" vertex="1" parent="1">
          <mxGeometry x="110" y="670" width="100" height="20" as="geometry" />
        </mxCell>
        
        <mxCell id="td_transaction" value="transaction_id (FK)" style="text;html=1;strokeColor=none;fillColor=none;align=left;verticalAlign=middle;whiteSpace=wrap;rounded=0;fontSize=12;fontStyle=1;" vertex="1" parent="1">
          <mxGeometry x="110" y="690" width="100" height="20" as="geometry" />
        </mxCell>
        
        <mxCell id="td_variant" value="product_variant_id (FK)" style="text;html=1;strokeColor=none;fillColor=none;align=left;verticalAlign=middle;whiteSpace=wrap;rounded=0;fontSize=12;fontStyle=1;" vertex="1" parent="1">
          <mxGeometry x="110" y="710" width="100" height="20" as="geometry" />
        </mxCell>
        
        <mxCell id="td_quantity" value="quantity" style="text;html=1;strokeColor=none;fillColor=none;align=left;verticalAlign=middle;whiteSpace=wrap;rounded=0;fontSize=12;" vertex="1" parent="1">
          <mxGeometry x="110" y="730" width="100" height="20" as="geometry" />
        </mxCell>
        
        <mxCell id="td_price" value="price" style="text;html=1;strokeColor=none;fillColor=none;align=left;verticalAlign=middle;whiteSpace=wrap;rounded=0;fontSize=12;" vertex="1" parent="1">
          <mxGeometry x="110" y="750" width="100" height="20" as="geometry" />
        </mxCell>
        
        <mxCell id="td_subtotal" value="subtotal" style="text;html=1;strokeColor=none;fillColor=none;align=left;verticalAlign=middle;whiteSpace=wrap;rounded=0;fontSize=12;" vertex="1" parent="1">
          <mxGeometry x="110" y="770" width="100" height="20" as="geometry" />
        </mxCell>
        
        <!-- Carts Entity -->
        <mxCell id="carts" value="Carts" style="rounded=1;whiteSpace=wrap;html=1;fillColor=#fff2cc;strokeColor=#d6b656;fontSize=16;fontStyle=1;" vertex="1" parent="1">
          <mxGeometry x="400" y="650" width="120" height="120" as="geometry" />
        </mxCell>
        
        <mxCell id="carts_id" value="id (PK)" style="text;html=1;strokeColor=none;fillColor=none;align=left;verticalAlign=middle;whiteSpace=wrap;rounded=0;fontSize=12;fontStyle=1;" vertex="1" parent="1">
          <mxGeometry x="410" y="670" width="100" height="20" as="geometry" />
        </mxCell>
        
        <mxCell id="carts_user" value="user_id (FK)" style="text;html=1;strokeColor=none;fillColor=none;align=left;verticalAlign=middle;whiteSpace=wrap;rounded=0;fontSize=12;fontStyle=1;" vertex="1" parent="1">
          <mxGeometry x="410" y="690" width="100" height="20" as="geometry" />
        </mxCell>
        
        <mxCell id="carts_variant" value="product_variant_id (FK)" style="text;html=1;strokeColor=none;fillColor=none;align=left;verticalAlign=middle;whiteSpace=wrap;rounded=0;fontSize=12;fontStyle=1;" vertex="1" parent="1">
          <mxGeometry x="410" y="710" width="100" height="20" as="geometry" />
        </mxCell>
        
        <mxCell id="carts_quantity" value="quantity" style="text;html=1;strokeColor=none;fillColor=none;align=left;verticalAlign=middle;whiteSpace=wrap;rounded=0;fontSize=12;" vertex="1" parent="1">
          <mxGeometry x="410" y="730" width="100" height="20" as="geometry" />
        </mxCell>
        
        <!-- Shipping Addresses Entity -->
        <mxCell id="shipping" value="Shipping_Addresses" style="rounded=1;whiteSpace=wrap;html=1;fillColor=#f8cecc;strokeColor=#b85450;fontSize=16;fontStyle=1;" vertex="1" parent="1">
          <mxGeometry x="700" y="650" width="120" height="160" as="geometry" />
        </mxCell>
        
        <mxCell id="shipping_id" value="id (PK)" style="text;html=1;strokeColor=none;fillColor=none;align=left;verticalAlign=middle;whiteSpace=wrap;rounded=0;fontSize=12;fontStyle=1;" vertex="1" parent="1">
          <mxGeometry x="710" y="670" width="100" height="20" as="geometry" />
        </mxCell>
        
        <mxCell id="shipping_user" value="user_id (FK)" style="text;html=1;strokeColor=none;fillColor=none;align=left;verticalAlign=middle;whiteSpace=wrap;rounded=0;fontSize=12;fontStyle=1;" vertex="1" parent="1">
          <mxGeometry x="710" y="690" width="100" height="20" as="geometry" />
        </mxCell>
        
        <mxCell id="shipping_address" value="address" style="text;html=1;strokeColor=none;fillColor=none;align=left;verticalAlign=middle;whiteSpace=wrap;rounded=0;fontSize=12;" vertex="1" parent="1">
          <mxGeometry x="710" y="710" width="100" height="20" as="geometry" />
        </mxCell>
        
        <mxCell id="shipping_city" value="city" style="text;html=1;strokeColor=none;fillColor=none;align=left;verticalAlign=middle;whiteSpace=wrap;rounded=0;fontSize=12;" vertex="1" parent="1">
          <mxGeometry x="710" y="730" width="100" height="20" as="geometry" />
        </mxCell>
        
        <mxCell id="shipping_postal" value="postal_code" style="text;html=1;strokeColor=none;fillColor=none;align=left;verticalAlign=middle;whiteSpace=wrap;rounded=0;fontSize=12;" vertex="1" parent="1">
          <mxGeometry x="710" y="750" width="100" height="20" as="geometry" />
        </mxCell>
        
        <mxCell id="shipping_phone" value="phone" style="text;html=1;strokeColor=none;fillColor=none;align=left;verticalAlign=middle;whiteSpace=wrap;rounded=0;fontSize=12;" vertex="1" parent="1">
          <mxGeometry x="710" y="770" width="100" height="20" as="geometry" />
        </mxCell>
        
        <!-- Relationships -->
        <!-- Categories to Products -->
        <mxCell id="rel1" edge="1" parent="1" source="categories" target="products">
          <mxGeometry relative="1" as="geometry" />
        </mxCell>
        
        <!-- Products to Variants -->
        <mxCell id="rel2" edge="1" parent="1" source="products" target="variants">
          <mxGeometry relative="1" as="geometry" />
        </mxCell>
        
        <!-- Products to Images -->
        <mxCell id="rel3" edge="1" parent="1" source="products" target="images">
          <mxGeometry relative="1" as="geometry" />
        </mxCell>
        
        <!-- Users to Transactions -->
        <mxCell id="rel4" edge="1" parent="1" source="users" target="transactions">
          <mxGeometry relative="1" as="geometry" />
        </mxCell>
        
        <!-- Transactions to Transaction Details -->
        <mxCell id="rel5" edge="1" parent="1" source="transactions" target="transaction_details">
          <mxGeometry relative="1" as="geometry" />
        </mxCell>
        
        <!-- Variants to Transaction Details -->
        <mxCell id="rel6" edge="1" parent="1" source="variants" target="transaction_details">
          <mxGeometry relative="1" as="geometry" />
        </mxCell>
        
        <!-- Users to Carts -->
        <mxCell id="rel7" edge="1" parent="1" source="users" target="carts">
          <mxGeometry relative="1" as="geometry" />
        </mxCell>
        
        <!-- Variants to Carts -->
        <mxCell id="rel8" edge="1" parent="1" source="variants" target="carts">
          <mxGeometry relative="1" as="geometry" />
        </mxCell>
        
        <!-- Users to Shipping Addresses -->
        <mxCell id="rel9" edge="1" parent="1" source="users" target="shipping">
          <mxGeometry relative="1" as="geometry" />
        </mxCell>
        
        <!-- Relationship Labels -->
        <mxCell id="label1" value="1:N" style="text;html=1;strokeColor=none;fillColor=none;align=center;verticalAlign=middle;whiteSpace=wrap;rounded=0;fontSize=12;fontStyle=1;" vertex="1" parent="1">
          <mxGeometry x="300" y="160" width="30" height="20" as="geometry" />
        </mxCell>
        
        <mxCell id="label2" value="1:N" style="text;html=1;strokeColor=none;fillColor=none;align=center;verticalAlign=middle;whiteSpace=wrap;rounded=0;fontSize=12;fontStyle=1;" vertex="1" parent="1">
          <mxGeometry x="600" y="160" width="30" height="20" as="geometry" />
        </mxCell>
        
        <mxCell id="label3" value="1:N" style="text;html=1;strokeColor=none;fillColor=none;align=center;verticalAlign=middle;whiteSpace=wrap;rounded=0;fontSize=12;fontStyle=1;" vertex="1" parent="1">
          <mxGeometry x="600" y="400" width="30" height="20" as="geometry" />
        </mxCell>
        
        <mxCell id="label4" value="1:N" style="text;html=1;strokeColor=none;fillColor=none;align=center;verticalAlign=middle;whiteSpace=wrap;rounded=0;fontSize=12;fontStyle=1;" vertex="1" parent="1">
          <mxGeometry x="200" y="300" width="30" height="20" as="geometry" />
        </mxCell>
        
        <mxCell id="label5" value="1:N" style="text;html=1;strokeColor=none;fillColor=none;align=center;verticalAlign=middle;whiteSpace=wrap;rounded=0;fontSize=12;fontStyle=1;" vertex="1" parent="1">
          <mxGeometry x="200" y="500" width="30" height="20" as="geometry" />
        </mxCell>
        
        <mxCell id="label6" value="1:N" style="text;html=1;strokeColor=none;fillColor=none;align=center;verticalAlign=middle;whiteSpace=wrap;rounded=0;fontSize=12;fontStyle=1;" vertex="1" parent="1">
          <mxGeometry x="200" y="650" width="30" height="20" as="geometry" />
        </mxCell>
        
        <mxCell id="label7" value="1:N" style="text;html=1;strokeColor=none;fillColor=none;align=center;verticalAlign=middle;whiteSpace=wrap;rounded=0;fontSize=12;fontStyle=1;" vertex="1" parent="1">
          <mxGeometry x="200" y="700" width="30" height="20" as="geometry" />
        </mxCell>
        
        <mxCell id="label8" value="1:N" style="text;html=1;strokeColor=none;fillColor=none;align=center;verticalAlign=middle;whiteSpace=wrap;rounded=0;fontSize=12;fontStyle=1;" vertex="1" parent="1">
          <mxGeometry x="500" y="700" width="30" height="20" as="geometry" />
        </mxCell>
        
        <mxCell id="label9" value="1:N" style="text;html=1;strokeColor=none;fillColor=none;align=center;verticalAlign=middle;whiteSpace=wrap;rounded=0;fontSize=12;fontStyle=1;" vertex="1" parent="1">
          <mxGeometry x="800" y="700" width="30" height="20" as="geometry" />
        </mxCell>
        
        <!-- Legend -->
        <mxCell id="legend" value="KETERANGAN:" style="text;html=1;strokeColor=none;fillColor=none;align=left;verticalAlign=middle;whiteSpace=wrap;rounded=0;fontSize=14;fontStyle=1;" vertex="1" parent="1">
          <mxGeometry x="100" y="850" width="200" height="30" as="geometry" />
        </mxCell>
        
        <mxCell id="legend_pk" value="PK = Primary Key" style="text;html=1;strokeColor=none;fillColor=none;align=left;verticalAlign=middle;whiteSpace=wrap;rounded=0;fontSize=12;fontStyle=1;" vertex="1" parent="1">
          <mxGeometry x="100" y="880" width="150" height="20" as="geometry" />
        </mxCell>
        
        <mxCell id="legend_fk" value="FK = Foreign Key" style="text;html=1;strokeColor=none;fillColor=none;align=left;verticalAlign=middle;whiteSpace=wrap;rounded=0;fontSize=12;fontStyle=1;" vertex="1" parent="1">
          <mxGeometry x="100" y="900" width="150" height="20" as="geometry" />
        </mxCell>
        
        <mxCell id="legend_rel" value="1:N = One to Many Relationship" style="text;html=1;strokeColor=none;fillColor=none;align=left;verticalAlign=middle;whiteSpace=wrap;rounded=0;fontSize=12;" vertex="1" parent="1">
          <mxGeometry x="100" y="920" width="250" height="20" as="geometry" />
        </mxCell>
        
      </root>
    </mxGraphModel>
  </diagram>
</mxfile>
